# xmcd
#
# Track frame offsets: 
#        150
#        10050
#        23543
#        35493
#        47848
#        59490
#        70350
#        82710
#        94493
#        107200
#        119653
#        132865
#        144600
#        155565
#        165748
#        177358
#        190618
#        201980
#        212913
#        224178
#
# Disc length: 3125 seconds
#
# Revision: 1
# Processed by: cddbd v1.5.2PL0 Copyright (c) Steve Scherf et al.
# Submitted via: ExactAudioCopy v0.95b4
#
DISCID=2e0c3314
DTITLE=John Lee Hooker - Boom Boom
DYEAR=1900
DGENRE=
TTITLE0=Dimples
TTITLE1=Every Night
TTITLE2=Little Wheel
TTITLE3=You Can Lead Me Baby
TTITLE4=I Love You Honey
TTITLE5=Maudie
TTITLE6=I'm In The Mood
TTITLE7=Boogie Chillun
TTITLE8=Hobo Blues
TTITLE9=Crawlin' Kingsnake
TTITLE10=Drive Me Away
TTITLE11=Solid Sender
TTITLE12=No Shoes
TTITLE13=Want Ad Blues
TTITLE14=Will The Circle Be Unbroken
TTITLE15=I'm Goin' Upstairs
TTITLE16=Boom, Boom
TTITLE17=Bottle Up And Go
TTITLE18=This Is Hip
TTITLE19=Big Legs, Tight Skirt
EXTD=
EXTT0=
EXTT1=
EXTT2=
EXTT3=
EXTT4=
EXTT5=
EXTT6=
EXTT7=
EXTT8=
EXTT9=
EXTT10=
EXTT11=
EXTT12=
EXTT13=
EXTT14=
EXTT15=
EXTT16=
EXTT17=
EXTT18=
EXTT19=
PLAYORDER=
